<mxfile host="app.diagrams.net" modified="2022-11-07T07:54:01.225Z" agent="5.0 (Macintosh; Intel Mac OS X 10_15_7) AppleWebKit/537.36 (KHTML, like Gecko) Chrome/107.0.0.0 Safari/537.36" etag="Yeh6uxtcpu2C9jX4Z49r" version="20.5.3" type="github">
  <diagram id="6a731a19-8d31-9384-78a2-239565b7b9f0" name="Page-1">
    <mxGraphModel dx="1376" dy="-14" grid="1" gridSize="10" guides="1" tooltips="1" connect="1" arrows="1" fold="1" page="1" pageScale="1" pageWidth="1169" pageHeight="827" background="none" math="0" shadow="0">
      <root>
        <mxCell id="0" />
        <mxCell id="1" parent="0" />
        <mxCell id="90" value="ログインページ" style="rounded=1;fillColor=#23445D;strokeColor=none;strokeWidth=2;fontFamily=Helvetica;html=1;gradientColor=none;labelBackgroundColor=#FFFFFF;" parent="1" vertex="1">
          <mxGeometry x="40" y="1161" width="160" height="80" as="geometry" />
        </mxCell>
        <mxCell id="119" value="" style="edgeStyle=elbowEdgeStyle;elbow=horizontal;strokeWidth=3;strokeColor=#0C343D;fontFamily=Helvetica;html=1;entryX=0;entryY=0.5;entryDx=0;entryDy=0;" parent="1" source="GtuZvt-CssU2a1smlivd-149" target="GtuZvt-CssU2a1smlivd-153" edge="1">
          <mxGeometry x="-676.4510204081632" y="1010" width="131.97278911564624" height="100" as="geometry">
            <mxPoint x="490" y="1070" as="sourcePoint" />
            <mxPoint x="310" y="960" as="targetPoint" />
            <Array as="points">
              <mxPoint x="520" y="960" />
              <mxPoint x="520" y="970" />
              <mxPoint x="550" y="1280" />
              <mxPoint x="490" y="1340" />
              <mxPoint x="280" y="1300" />
              <mxPoint x="260" y="1420" />
              <mxPoint x="260" y="1230" />
              <mxPoint x="260" y="1090" />
              <mxPoint x="240" y="1000" />
            </Array>
          </mxGeometry>
        </mxCell>
        <mxCell id="GtuZvt-CssU2a1smlivd-146" value="" style="edgeStyle=elbowEdgeStyle;elbow=horizontal;strokeWidth=3;strokeColor=#0C343D;fontFamily=Helvetica;html=1;entryX=0;entryY=0.5;entryDx=0;entryDy=0;" edge="1" parent="1">
          <mxGeometry x="-240.55102040816325" y="820" width="131.97278911564624" height="100" as="geometry">
            <mxPoint x="200.00374149659865" y="959.5" as="sourcePoint" />
            <mxPoint x="320" y="960" as="targetPoint" />
            <Array as="points" />
          </mxGeometry>
        </mxCell>
        <mxCell id="GtuZvt-CssU2a1smlivd-147" value="投稿機能一覧ページ" style="rounded=1;fillColor=#23445D;strokeColor=none;strokeWidth=2;fontFamily=Helvetica;html=1;gradientColor=none;labelBackgroundColor=#FFFFFF;" vertex="1" parent="1">
          <mxGeometry x="320" y="1161" width="160" height="80" as="geometry" />
        </mxCell>
        <mxCell id="GtuZvt-CssU2a1smlivd-148" value="ヘッダー" style="rounded=1;fillColor=#23445D;strokeColor=none;strokeWidth=2;fontFamily=Helvetica;html=1;gradientColor=none;labelBackgroundColor=#FFFFFF;" vertex="1" parent="1">
          <mxGeometry x="40" y="920" width="160" height="80" as="geometry" />
        </mxCell>
        <mxCell id="GtuZvt-CssU2a1smlivd-149" value="管理者機能一覧ページ" style="rounded=1;fillColor=#23445D;strokeColor=none;strokeWidth=2;fontFamily=Helvetica;html=1;gradientColor=none;labelBackgroundColor=#FFFFFF;" vertex="1" parent="1">
          <mxGeometry x="320" y="920" width="160" height="80" as="geometry" />
        </mxCell>
        <mxCell id="GtuZvt-CssU2a1smlivd-150" value="" style="edgeStyle=elbowEdgeStyle;elbow=horizontal;strokeWidth=3;strokeColor=#0C343D;fontFamily=Helvetica;html=1;entryX=0;entryY=0.5;entryDx=0;entryDy=0;" edge="1" parent="1">
          <mxGeometry x="-240.55102040816325" y="1061" width="131.97278911564624" height="100" as="geometry">
            <mxPoint x="200.00374149659865" y="1200.5" as="sourcePoint" />
            <mxPoint x="320" y="1201" as="targetPoint" />
            <Array as="points" />
          </mxGeometry>
        </mxCell>
        <mxCell id="GtuZvt-CssU2a1smlivd-151" value="新規登録ページ" style="rounded=1;fillColor=#23445D;strokeColor=none;strokeWidth=2;fontFamily=Helvetica;html=1;gradientColor=none;labelBackgroundColor=#FFFFFF;" vertex="1" parent="1">
          <mxGeometry x="600" y="920" width="160" height="80" as="geometry" />
        </mxCell>
        <mxCell id="GtuZvt-CssU2a1smlivd-153" value="登録者一覧ページ" style="rounded=1;fillColor=#23445D;strokeColor=none;strokeWidth=2;fontFamily=Helvetica;html=1;gradientColor=none;labelBackgroundColor=#FFFFFF;" vertex="1" parent="1">
          <mxGeometry x="600" y="1040" width="160" height="80" as="geometry" />
        </mxCell>
        <mxCell id="GtuZvt-CssU2a1smlivd-154" value="登録者詳細ページ" style="rounded=1;fillColor=#23445D;strokeColor=none;strokeWidth=2;fontFamily=Helvetica;html=1;gradientColor=none;labelBackgroundColor=#FFFFFF;" vertex="1" parent="1">
          <mxGeometry x="880" y="1040" width="160" height="80" as="geometry" />
        </mxCell>
        <mxCell id="GtuZvt-CssU2a1smlivd-155" value="登録者編集ページ" style="rounded=1;fillColor=#23445D;strokeColor=none;strokeWidth=2;fontFamily=Helvetica;html=1;gradientColor=none;labelBackgroundColor=#FFFFFF;" vertex="1" parent="1">
          <mxGeometry x="1160" y="1040" width="160" height="80" as="geometry" />
        </mxCell>
        <mxCell id="GtuZvt-CssU2a1smlivd-156" value="" style="edgeStyle=elbowEdgeStyle;elbow=horizontal;strokeWidth=3;strokeColor=#0C343D;fontFamily=Helvetica;html=1;entryX=0;entryY=0.5;entryDx=0;entryDy=0;" edge="1" parent="1">
          <mxGeometry x="39.448979591836746" y="820.5" width="131.97278911564624" height="100" as="geometry">
            <mxPoint x="480.00374149659865" y="960" as="sourcePoint" />
            <mxPoint x="600" y="960.5" as="targetPoint" />
            <Array as="points" />
          </mxGeometry>
        </mxCell>
        <mxCell id="GtuZvt-CssU2a1smlivd-157" value="" style="edgeStyle=elbowEdgeStyle;elbow=horizontal;strokeWidth=3;strokeColor=#0C343D;fontFamily=Helvetica;html=1;entryX=0;entryY=0.5;entryDx=0;entryDy=0;" edge="1" parent="1">
          <mxGeometry x="319.44897959183675" y="940" width="131.97278911564624" height="100" as="geometry">
            <mxPoint x="760.0037414965986" y="1079.5" as="sourcePoint" />
            <mxPoint x="880" y="1080" as="targetPoint" />
            <Array as="points" />
          </mxGeometry>
        </mxCell>
        <mxCell id="GtuZvt-CssU2a1smlivd-158" value="" style="edgeStyle=elbowEdgeStyle;elbow=horizontal;strokeWidth=3;strokeColor=#0C343D;fontFamily=Helvetica;html=1;entryX=0;entryY=0.5;entryDx=0;entryDy=0;" edge="1" parent="1">
          <mxGeometry x="599.4489795918367" y="940" width="131.97278911564624" height="100" as="geometry">
            <mxPoint x="1040.0037414965986" y="1079.5" as="sourcePoint" />
            <mxPoint x="1160" y="1080" as="targetPoint" />
            <Array as="points" />
          </mxGeometry>
        </mxCell>
        <mxCell id="GtuZvt-CssU2a1smlivd-159" value="" style="edgeStyle=elbowEdgeStyle;elbow=horizontal;strokeWidth=3;strokeColor=#0C343D;fontFamily=Helvetica;html=1;entryX=0;entryY=0.5;entryDx=0;entryDy=0;" edge="1" parent="1" target="GtuZvt-CssU2a1smlivd-147">
          <mxGeometry x="-956.4510204081632" y="1010" width="131.97278911564624" height="100" as="geometry">
            <mxPoint x="200" y="960" as="sourcePoint" />
            <mxPoint x="320" y="1080" as="targetPoint" />
            <Array as="points">
              <mxPoint x="240" y="960" />
              <mxPoint x="240" y="970" />
              <mxPoint x="270" y="1280" />
              <mxPoint x="210" y="1340" />
              <mxPoint y="1300" />
              <mxPoint x="-20" y="1420" />
              <mxPoint x="-20" y="1230" />
              <mxPoint x="-20" y="1090" />
              <mxPoint x="-40" y="1000" />
            </Array>
          </mxGeometry>
        </mxCell>
        <mxCell id="GtuZvt-CssU2a1smlivd-160" value="投稿ページ" style="rounded=1;fillColor=#23445D;strokeColor=none;strokeWidth=2;fontFamily=Helvetica;html=1;gradientColor=none;labelBackgroundColor=#FFFFFF;" vertex="1" parent="1">
          <mxGeometry x="600" y="1160.5" width="160" height="80" as="geometry" />
        </mxCell>
        <mxCell id="GtuZvt-CssU2a1smlivd-161" value="指示値一覧ページ" style="rounded=1;fillColor=#23445D;strokeColor=none;strokeWidth=2;fontFamily=Helvetica;html=1;gradientColor=none;labelBackgroundColor=#FFFFFF;" vertex="1" parent="1">
          <mxGeometry x="600" y="1280" width="160" height="80" as="geometry" />
        </mxCell>
        <mxCell id="GtuZvt-CssU2a1smlivd-162" value="投稿編集ページ" style="rounded=1;fillColor=#23445D;strokeColor=none;strokeWidth=2;fontFamily=Helvetica;html=1;gradientColor=none;labelBackgroundColor=#FFFFFF;" vertex="1" parent="1">
          <mxGeometry x="880" y="1280" width="160" height="80" as="geometry" />
        </mxCell>
        <mxCell id="GtuZvt-CssU2a1smlivd-163" value="" style="edgeStyle=elbowEdgeStyle;elbow=horizontal;strokeWidth=3;strokeColor=#0C343D;fontFamily=Helvetica;html=1;entryX=0;entryY=0.5;entryDx=0;entryDy=0;" edge="1" parent="1">
          <mxGeometry x="39.448979591836746" y="1060.5" width="131.97278911564624" height="100" as="geometry">
            <mxPoint x="480.00374149659865" y="1200" as="sourcePoint" />
            <mxPoint x="600" y="1200.5" as="targetPoint" />
            <Array as="points" />
          </mxGeometry>
        </mxCell>
        <mxCell id="GtuZvt-CssU2a1smlivd-164" value="" style="edgeStyle=elbowEdgeStyle;elbow=horizontal;strokeWidth=3;strokeColor=#0C343D;fontFamily=Helvetica;html=1;entryX=0;entryY=0.5;entryDx=0;entryDy=0;" edge="1" parent="1">
          <mxGeometry x="319.44897959183675" y="1180" width="131.97278911564624" height="100" as="geometry">
            <mxPoint x="760.0037414965986" y="1319.5" as="sourcePoint" />
            <mxPoint x="880" y="1320" as="targetPoint" />
            <Array as="points" />
          </mxGeometry>
        </mxCell>
        <mxCell id="GtuZvt-CssU2a1smlivd-165" value="" style="edgeStyle=elbowEdgeStyle;elbow=horizontal;strokeWidth=3;strokeColor=#0C343D;fontFamily=Helvetica;html=1;entryX=0;entryY=0.5;entryDx=0;entryDy=0;" edge="1" parent="1">
          <mxGeometry x="-676.4510204081632" y="1250" width="131.97278911564624" height="100" as="geometry">
            <mxPoint x="480" y="1200" as="sourcePoint" />
            <mxPoint x="600" y="1320" as="targetPoint" />
            <Array as="points">
              <mxPoint x="520" y="1200" />
              <mxPoint x="520" y="1210" />
              <mxPoint x="550" y="1520" />
              <mxPoint x="490" y="1580" />
              <mxPoint x="280" y="1540" />
              <mxPoint x="260" y="1660" />
              <mxPoint x="260" y="1470" />
              <mxPoint x="260" y="1330" />
              <mxPoint x="240" y="1240" />
            </Array>
          </mxGeometry>
        </mxCell>
      </root>
    </mxGraphModel>
  </diagram>
</mxfile>
